<svg width="4000" height="4003" viewBox="0 0 4000 4003" fill="none" xmlns="http://www.w3.org/2000/svg">
<rect y="3" width="4000" height="4000" fill="black"/>
<g opacity="0.08">
<line x1="1.5" y1="3" x2="1.5" y2="2003" stroke="white" stroke-width="3"/>
<line x1="101.5" y1="3" x2="101.5" y2="2003" stroke="white" stroke-width="3"/>
<line x1="201.5" y1="3" x2="201.5" y2="2003" stroke="white" stroke-width="3"/>
<line x1="301.5" y1="3" x2="301.5" y2="2003" stroke="white" stroke-width="3"/>
<line x1="401.5" y1="3" x2="401.5" y2="2003" stroke="white" stroke-width="3"/>
<line x1="501.5" y1="3" x2="501.5" y2="2003" stroke="white" stroke-width="3"/>
<line x1="601.5" y1="3" x2="601.5" y2="2003" stroke="white" stroke-width="3"/>
<line x1="701.5" y1="3" x2="701.5" y2="2003" stroke="white" stroke-width="3"/>
<line x1="801.5" y1="3" x2="801.5" y2="2003" stroke="white" stroke-width="3"/>
<line x1="901.5" y1="3" x2="901.5" y2="2003" stroke="white" stroke-width="3"/>
<line x1="1001.5" y1="3" x2="1001.5" y2="2003" stroke="white" stroke-width="3"/>
<line x1="1101.5" y1="3" x2="1101.5" y2="2003" stroke="white" stroke-width="3"/>
<line x1="1201.5" y1="3" x2="1201.5" y2="2003" stroke="white" stroke-width="3"/>
<line x1="1301.5" y1="3" x2="1301.5" y2="2003" stroke="white" stroke-width="3"/>
<line x1="1401.5" y1="3" x2="1401.5" y2="2003" stroke="white" stroke-width="3"/>
<line x1="1501.5" y1="3" x2="1501.5" y2="2003" stroke="white" stroke-width="3"/>
<line x1="1601.5" y1="3" x2="1601.5" y2="2003" stroke="white" stroke-width="3"/>
<line x1="1701.5" y1="3" x2="1701.5" y2="2003" stroke="white" stroke-width="3"/>
<line x1="1801.5" y1="3" x2="1801.5" y2="2003" stroke="white" stroke-width="3"/>
<line x1="1901.5" y1="3" x2="1901.5" y2="2003" stroke="white" stroke-width="3"/>
<line x1="2001.5" y1="3" x2="2001.5" y2="2003" stroke="white" stroke-width="3"/>
<line y1="2001.5" x2="2000" y2="2001.5" stroke="white" stroke-width="3"/>
<line y1="1901.5" x2="2000" y2="1901.5" stroke="white" stroke-width="3"/>
<line y1="1801.5" x2="2000" y2="1801.5" stroke="white" stroke-width="3"/>
<line y1="1701.5" x2="2000" y2="1701.5" stroke="white" stroke-width="3"/>
<line y1="1601.5" x2="2000" y2="1601.5" stroke="white" stroke-width="3"/>
<line y1="1501.5" x2="2000" y2="1501.5" stroke="white" stroke-width="3"/>
<line y1="1401.5" x2="2000" y2="1401.5" stroke="white" stroke-width="3"/>
<line y1="1301.5" x2="2000" y2="1301.5" stroke="white" stroke-width="3"/>
<line y1="1201.5" x2="2000" y2="1201.5" stroke="white" stroke-width="3"/>
<line y1="1101.5" x2="2000" y2="1101.5" stroke="white" stroke-width="3"/>
<line y1="1001.5" x2="2000" y2="1001.5" stroke="white" stroke-width="3"/>
<line y1="901.5" x2="2000" y2="901.5" stroke="white" stroke-width="3"/>
<line y1="801.5" x2="2000" y2="801.5" stroke="white" stroke-width="3"/>
<line y1="701.5" x2="2000" y2="701.5" stroke="white" stroke-width="3"/>
<line y1="601.5" x2="2000" y2="601.5" stroke="white" stroke-width="3"/>
<line y1="501.5" x2="2000" y2="501.5" stroke="white" stroke-width="3"/>
<line y1="401.5" x2="2000" y2="401.5" stroke="white" stroke-width="3"/>
<line y1="301.5" x2="2000" y2="301.5" stroke="white" stroke-width="3"/>
<line y1="201.5" x2="2000" y2="201.5" stroke="white" stroke-width="3"/>
<line y1="101.5" x2="2000" y2="101.5" stroke="white" stroke-width="3"/>
</g>
<g opacity="0.08">
<line x1="2101.5" y1="3" x2="2101.5" y2="2003" stroke="white" stroke-width="3"/>
<line x1="2201.5" y1="3" x2="2201.5" y2="2003" stroke="white" stroke-width="3"/>
<line x1="2301.5" y1="3" x2="2301.5" y2="2003" stroke="white" stroke-width="3"/>
<line x1="2401.5" y1="3" x2="2401.5" y2="2003" stroke="white" stroke-width="3"/>
<line x1="2501.5" y1="3" x2="2501.5" y2="2003" stroke="white" stroke-width="3"/>
<line x1="2601.5" y1="3" x2="2601.5" y2="2003" stroke="white" stroke-width="3"/>
<line x1="2701.5" y1="3" x2="2701.5" y2="2003" stroke="white" stroke-width="3"/>
<line x1="2801.5" y1="3" x2="2801.5" y2="2003" stroke="white" stroke-width="3"/>
<line x1="2901.5" y1="3" x2="2901.5" y2="2003" stroke="white" stroke-width="3"/>
<line x1="3001.5" y1="3" x2="3001.5" y2="2003" stroke="white" stroke-width="3"/>
<line x1="3101.5" y1="3" x2="3101.5" y2="2003" stroke="white" stroke-width="3"/>
<line x1="3201.5" y1="3" x2="3201.5" y2="2003" stroke="white" stroke-width="3"/>
<line x1="3301.5" y1="3" x2="3301.5" y2="2003" stroke="white" stroke-width="3"/>
<line x1="3401.5" y1="3" x2="3401.5" y2="2003" stroke="white" stroke-width="3"/>
<line x1="3501.5" y1="3" x2="3501.5" y2="2003" stroke="white" stroke-width="3"/>
<line x1="3601.5" y1="3" x2="3601.5" y2="2003" stroke="white" stroke-width="3"/>
<line x1="3701.5" y1="3" x2="3701.5" y2="2003" stroke="white" stroke-width="3"/>
<line x1="3801.5" y1="3" x2="3801.5" y2="2003" stroke="white" stroke-width="3"/>
<line x1="3901.5" y1="3" x2="3901.5" y2="2003" stroke="white" stroke-width="3"/>
<line x1="2000" y1="2001.5" x2="4000" y2="2001.5" stroke="white" stroke-width="3"/>
<line x1="2000" y1="1901.5" x2="4000" y2="1901.5" stroke="white" stroke-width="3"/>
<line x1="2000" y1="1801.5" x2="4000" y2="1801.5" stroke="white" stroke-width="3"/>
<line x1="2000" y1="1701.5" x2="4000" y2="1701.5" stroke="white" stroke-width="3"/>
<line x1="2000" y1="1601.5" x2="4000" y2="1601.5" stroke="white" stroke-width="3"/>
<line x1="2000" y1="1501.5" x2="4000" y2="1501.5" stroke="white" stroke-width="3"/>
<line x1="2000" y1="1401.5" x2="4000" y2="1401.5" stroke="white" stroke-width="3"/>
<line x1="2000" y1="1301.5" x2="4000" y2="1301.5" stroke="white" stroke-width="3"/>
<line x1="2000" y1="1201.5" x2="4000" y2="1201.5" stroke="white" stroke-width="3"/>
<line x1="2000" y1="1101.5" x2="4000" y2="1101.5" stroke="white" stroke-width="3"/>
<line x1="2000" y1="1001.5" x2="4000" y2="1001.5" stroke="white" stroke-width="3"/>
<line x1="2000" y1="901.5" x2="4000" y2="901.5" stroke="white" stroke-width="3"/>
<line x1="2000" y1="801.5" x2="4000" y2="801.5" stroke="white" stroke-width="3"/>
<line x1="2000" y1="701.5" x2="4000" y2="701.5" stroke="white" stroke-width="3"/>
<line x1="2000" y1="601.5" x2="4000" y2="601.5" stroke="white" stroke-width="3"/>
<line x1="2000" y1="501.5" x2="4000" y2="501.5" stroke="white" stroke-width="3"/>
<line x1="2000" y1="401.5" x2="4000" y2="401.5" stroke="white" stroke-width="3"/>
<line x1="2000" y1="301.5" x2="4000" y2="301.5" stroke="white" stroke-width="3"/>
<line x1="2000" y1="201.5" x2="4000" y2="201.5" stroke="white" stroke-width="3"/>
<line x1="2000" y1="101.5" x2="4000" y2="101.5" stroke="white" stroke-width="3"/>
<line x1="2000" y1="1.5" x2="4000" y2="1.5" stroke="white" stroke-width="3"/>
</g>
<g opacity="0.08">
<line x1="1.5" y1="2003" x2="1.5" y2="4003" stroke="white" stroke-width="3"/>
<line x1="101.5" y1="2003" x2="101.5" y2="4003" stroke="white" stroke-width="3"/>
<line x1="201.5" y1="2003" x2="201.5" y2="4003" stroke="white" stroke-width="3"/>
<line x1="301.5" y1="2003" x2="301.5" y2="4003" stroke="white" stroke-width="3"/>
<line x1="401.5" y1="2003" x2="401.5" y2="4003" stroke="white" stroke-width="3"/>
<line x1="501.5" y1="2003" x2="501.5" y2="4003" stroke="white" stroke-width="3"/>
<line x1="601.5" y1="2003" x2="601.5" y2="4003" stroke="white" stroke-width="3"/>
<line x1="701.5" y1="2003" x2="701.5" y2="4003" stroke="white" stroke-width="3"/>
<line x1="801.5" y1="2003" x2="801.5" y2="4003" stroke="white" stroke-width="3"/>
<line x1="901.5" y1="2003" x2="901.5" y2="4003" stroke="white" stroke-width="3"/>
<line x1="1001.5" y1="2003" x2="1001.5" y2="4003" stroke="white" stroke-width="3"/>
<line x1="1101.5" y1="2003" x2="1101.5" y2="4003" stroke="white" stroke-width="3"/>
<line x1="1201.5" y1="2003" x2="1201.5" y2="4003" stroke="white" stroke-width="3"/>
<line x1="1301.5" y1="2003" x2="1301.5" y2="4003" stroke="white" stroke-width="3"/>
<line x1="1401.5" y1="2003" x2="1401.5" y2="4003" stroke="white" stroke-width="3"/>
<line x1="1501.5" y1="2003" x2="1501.5" y2="4003" stroke="white" stroke-width="3"/>
<line x1="1601.5" y1="2003" x2="1601.5" y2="4003" stroke="white" stroke-width="3"/>
<line x1="1701.5" y1="2003" x2="1701.5" y2="4003" stroke="white" stroke-width="3"/>
<line x1="1801.5" y1="2003" x2="1801.5" y2="4003" stroke="white" stroke-width="3"/>
<line x1="1901.5" y1="2003" x2="1901.5" y2="4003" stroke="white" stroke-width="3"/>
<line y1="4001.5" x2="2000" y2="4001.5" stroke="white" stroke-width="3"/>
<line y1="3901.5" x2="2000" y2="3901.5" stroke="white" stroke-width="3"/>
<line y1="3801.5" x2="2000" y2="3801.5" stroke="white" stroke-width="3"/>
<line y1="3701.5" x2="2000" y2="3701.5" stroke="white" stroke-width="3"/>
<line y1="3601.5" x2="2000" y2="3601.5" stroke="white" stroke-width="3"/>
<line y1="3501.5" x2="2000" y2="3501.5" stroke="white" stroke-width="3"/>
<line y1="3401.5" x2="2000" y2="3401.5" stroke="white" stroke-width="3"/>
<line y1="3301.5" x2="2000" y2="3301.5" stroke="white" stroke-width="3"/>
<line y1="3201.5" x2="2000" y2="3201.5" stroke="white" stroke-width="3"/>
<line y1="3101.5" x2="2000" y2="3101.5" stroke="white" stroke-width="3"/>
<line y1="3001.5" x2="2000" y2="3001.5" stroke="white" stroke-width="3"/>
<line y1="2901.5" x2="2000" y2="2901.5" stroke="white" stroke-width="3"/>
<line y1="2801.5" x2="2000" y2="2801.5" stroke="white" stroke-width="3"/>
<line y1="2701.5" x2="2000" y2="2701.5" stroke="white" stroke-width="3"/>
<line y1="2601.5" x2="2000" y2="2601.5" stroke="white" stroke-width="3"/>
<line y1="2501.5" x2="2000" y2="2501.5" stroke="white" stroke-width="3"/>
<line y1="2401.5" x2="2000" y2="2401.5" stroke="white" stroke-width="3"/>
<line y1="2301.5" x2="2000" y2="2301.5" stroke="white" stroke-width="3"/>
<line y1="2201.5" x2="2000" y2="2201.5" stroke="white" stroke-width="3"/>
<line y1="2101.5" x2="2000" y2="2101.5" stroke="white" stroke-width="3"/>
</g>
<g opacity="0.08">
<line x1="2001.5" y1="2003" x2="2001.5" y2="4003" stroke="white" stroke-width="3"/>
<line x1="2101.5" y1="2003" x2="2101.5" y2="4003" stroke="white" stroke-width="3"/>
<line x1="2201.5" y1="2003" x2="2201.5" y2="4003" stroke="white" stroke-width="3"/>
<line x1="2301.5" y1="2003" x2="2301.5" y2="4003" stroke="white" stroke-width="3"/>
<line x1="2401.5" y1="2003" x2="2401.5" y2="4003" stroke="white" stroke-width="3"/>
<line x1="2501.5" y1="2003" x2="2501.5" y2="4003" stroke="white" stroke-width="3"/>
<line x1="2601.5" y1="2003" x2="2601.5" y2="4003" stroke="white" stroke-width="3"/>
<line x1="2701.5" y1="2003" x2="2701.5" y2="4003" stroke="white" stroke-width="3"/>
<line x1="2801.5" y1="2003" x2="2801.5" y2="4003" stroke="white" stroke-width="3"/>
<line x1="2901.5" y1="2003" x2="2901.5" y2="4003" stroke="white" stroke-width="3"/>
<line x1="3001.5" y1="2003" x2="3001.5" y2="4003" stroke="white" stroke-width="3"/>
<line x1="3101.5" y1="2003" x2="3101.5" y2="4003" stroke="white" stroke-width="3"/>
<line x1="3201.5" y1="2003" x2="3201.5" y2="4003" stroke="white" stroke-width="3"/>
<line x1="3301.5" y1="2003" x2="3301.5" y2="4003" stroke="white" stroke-width="3"/>
<line x1="3401.5" y1="2003" x2="3401.5" y2="4003" stroke="white" stroke-width="3"/>
<line x1="3501.5" y1="2003" x2="3501.5" y2="4003" stroke="white" stroke-width="3"/>
<line x1="3601.5" y1="2003" x2="3601.5" y2="4003" stroke="white" stroke-width="3"/>
<line x1="3701.5" y1="2003" x2="3701.5" y2="4003" stroke="white" stroke-width="3"/>
<line x1="3801.5" y1="2003" x2="3801.5" y2="4003" stroke="white" stroke-width="3"/>
<line x1="3901.5" y1="2003" x2="3901.5" y2="4003" stroke="white" stroke-width="3"/>
<line x1="2000" y1="4001.5" x2="4000" y2="4001.5" stroke="white" stroke-width="3"/>
<line x1="2000" y1="3901.5" x2="4000" y2="3901.5" stroke="white" stroke-width="3"/>
<line x1="2000" y1="3801.5" x2="4000" y2="3801.5" stroke="white" stroke-width="3"/>
<line x1="2000" y1="3701.5" x2="4000" y2="3701.5" stroke="white" stroke-width="3"/>
<line x1="2000" y1="3601.5" x2="4000" y2="3601.5" stroke="white" stroke-width="3"/>
<line x1="2000" y1="3501.5" x2="4000" y2="3501.5" stroke="white" stroke-width="3"/>
<line x1="2000" y1="3401.5" x2="4000" y2="3401.5" stroke="white" stroke-width="3"/>
<line x1="2000" y1="3301.5" x2="4000" y2="3301.5" stroke="white" stroke-width="3"/>
<line x1="2000" y1="3201.5" x2="4000" y2="3201.5" stroke="white" stroke-width="3"/>
<line x1="2000" y1="3101.5" x2="4000" y2="3101.5" stroke="white" stroke-width="3"/>
<line x1="2000" y1="3001.5" x2="4000" y2="3001.5" stroke="white" stroke-width="3"/>
<line x1="2000" y1="2901.5" x2="4000" y2="2901.5" stroke="white" stroke-width="3"/>
<line x1="2000" y1="2801.5" x2="4000" y2="2801.5" stroke="white" stroke-width="3"/>
<line x1="2000" y1="2701.5" x2="4000" y2="2701.5" stroke="white" stroke-width="3"/>
<line x1="2000" y1="2601.5" x2="4000" y2="2601.5" stroke="white" stroke-width="3"/>
<line x1="2000" y1="2501.5" x2="4000" y2="2501.5" stroke="white" stroke-width="3"/>
<line x1="2000" y1="2401.5" x2="4000" y2="2401.5" stroke="white" stroke-width="3"/>
<line x1="2000" y1="2301.5" x2="4000" y2="2301.5" stroke="white" stroke-width="3"/>
<line x1="2000" y1="2201.5" x2="4000" y2="2201.5" stroke="white" stroke-width="3"/>
<line x1="2000" y1="2101.5" x2="4000" y2="2101.5" stroke="white" stroke-width="3"/>
</g>
</svg>
