<svg width="496" height="121" viewBox="0 0 496 121" fill="none" xmlns="http://www.w3.org/2000/svg">
<path d="M10.5386 0.40332L12.4484 7.0954L19.1988 5.40332L14.3582 10.4033L19.1988 15.4033L12.4484 13.7112L10.5386 20.4033L8.62874 13.7112L1.87832 15.4033L6.71891 10.4033L1.87832 5.40332L8.62874 7.0954L10.5386 0.40332Z" fill="black"/>
<path d="M35.5386 0.40332L37.4484 7.0954L44.1988 5.40332L39.3582 10.4033L44.1988 15.4033L37.4484 13.7112L35.5386 20.4033L33.6287 13.7112L26.8783 15.4033L31.7189 10.4033L26.8783 5.40332L33.6287 7.0954L35.5386 0.40332Z" fill="black"/>
<path d="M60.5386 0.40332L62.4484 7.0954L69.1988 5.40332L64.3582 10.4033L69.1988 15.4033L62.4484 13.7112L60.5386 20.4033L58.6287 13.7112L51.8783 15.4033L56.7189 10.4033L51.8783 5.40332L58.6287 7.0954L60.5386 0.40332Z" fill="black"/>
<path d="M85.5386 0.40332L87.4484 7.0954L94.1988 5.40332L89.3582 10.4033L94.1988 15.4033L87.4484 13.7112L85.5386 20.4033L83.6287 13.7112L76.8783 15.4033L81.7189 10.4033L76.8783 5.40332L83.6287 7.0954L85.5386 0.40332Z" fill="black"/>
<path d="M110.539 0.40332L112.448 7.0954L119.199 5.40332L114.358 10.4033L119.199 15.4033L112.448 13.7112L110.539 20.4033L108.629 13.7112L101.878 15.4033L106.719 10.4033L101.878 5.40332L108.629 7.0954L110.539 0.40332Z" fill="black"/>
<path d="M135.539 0.40332L137.448 7.0954L144.199 5.40332L139.358 10.4033L144.199 15.4033L137.448 13.7112L135.539 20.4033L133.629 13.7112L126.878 15.4033L131.719 10.4033L126.878 5.40332L133.629 7.0954L135.539 0.40332Z" fill="black"/>
<path d="M160.539 0.40332L162.448 7.0954L169.199 5.40332L164.358 10.4033L169.199 15.4033L162.448 13.7112L160.539 20.4033L158.629 13.7112L151.878 15.4033L156.719 10.4033L151.878 5.40332L158.629 7.0954L160.539 0.40332Z" fill="black"/>
<path d="M185.539 0.40332L187.448 7.0954L194.199 5.40332L189.358 10.4033L194.199 15.4033L187.448 13.7112L185.539 20.4033L183.629 13.7112L176.878 15.4033L181.719 10.4033L176.878 5.40332L183.629 7.0954L185.539 0.40332Z" fill="black"/>
<path d="M210.539 0.40332L212.448 7.0954L219.199 5.40332L214.358 10.4033L219.199 15.4033L212.448 13.7112L210.539 20.4033L208.629 13.7112L201.878 15.4033L206.719 10.4033L201.878 5.40332L208.629 7.0954L210.539 0.40332Z" fill="black"/>
<path d="M235.539 0.40332L237.448 7.0954L244.199 5.40332L239.358 10.4033L244.199 15.4033L237.448 13.7112L235.539 20.4033L233.629 13.7112L226.878 15.4033L231.719 10.4033L226.878 5.40332L233.629 7.0954L235.539 0.40332Z" fill="black"/>
<path d="M260.539 0.40332L262.448 7.0954L269.199 5.40332L264.358 10.4033L269.199 15.4033L262.448 13.7112L260.539 20.4033L258.629 13.7112L251.878 15.4033L256.719 10.4033L251.878 5.40332L258.629 7.0954L260.539 0.40332Z" fill="black"/>
<path d="M285.539 0.40332L287.448 7.0954L294.199 5.40332L289.358 10.4033L294.199 15.4033L287.448 13.7112L285.539 20.4033L283.629 13.7112L276.878 15.4033L281.719 10.4033L276.878 5.40332L283.629 7.0954L285.539 0.40332Z" fill="black"/>
<path d="M310.539 0.40332L312.448 7.0954L319.199 5.40332L314.358 10.4033L319.199 15.4033L312.448 13.7112L310.539 20.4033L308.629 13.7112L301.878 15.4033L306.719 10.4033L301.878 5.40332L308.629 7.0954L310.539 0.40332Z" fill="black"/>
<path d="M335.539 0.40332L337.448 7.0954L344.199 5.40332L339.358 10.4033L344.199 15.4033L337.448 13.7112L335.539 20.4033L333.629 13.7112L326.878 15.4033L331.719 10.4033L326.878 5.40332L333.629 7.0954L335.539 0.40332Z" fill="black"/>
<path d="M360.539 0.40332L362.448 7.0954L369.199 5.40332L364.358 10.4033L369.199 15.4033L362.448 13.7112L360.539 20.4033L358.629 13.7112L351.878 15.4033L356.719 10.4033L351.878 5.40332L358.629 7.0954L360.539 0.40332Z" fill="black"/>
<path d="M385.539 0.40332L387.448 7.0954L394.199 5.40332L389.358 10.4033L394.199 15.4033L387.448 13.7112L385.539 20.4033L383.629 13.7112L376.878 15.4033L381.719 10.4033L376.878 5.40332L383.629 7.0954L385.539 0.40332Z" fill="black"/>
<path d="M410.539 0.40332L412.448 7.0954L419.199 5.40332L414.358 10.4033L419.199 15.4033L412.448 13.7112L410.539 20.4033L408.629 13.7112L401.878 15.4033L406.719 10.4033L401.878 5.40332L408.629 7.0954L410.539 0.40332Z" fill="black"/>
<path d="M435.539 0.40332L437.448 7.0954L444.199 5.40332L439.358 10.4033L444.199 15.4033L437.448 13.7112L435.539 20.4033L433.629 13.7112L426.878 15.4033L431.719 10.4033L426.878 5.40332L433.629 7.0954L435.539 0.40332Z" fill="black"/>
<path d="M460.539 0.40332L462.448 7.0954L469.199 5.40332L464.358 10.4033L469.199 15.4033L462.448 13.7112L460.539 20.4033L458.629 13.7112L451.878 15.4033L456.719 10.4033L451.878 5.40332L458.629 7.0954L460.539 0.40332Z" fill="black"/>
<path d="M485.539 0.40332L487.448 7.0954L494.199 5.40332L489.358 10.4033L494.199 15.4033L487.448 13.7112L485.539 20.4033L483.629 13.7112L476.878 15.4033L481.719 10.4033L476.878 5.40332L483.629 7.0954L485.539 0.40332Z" fill="black"/>
<path d="M10.5386 25.4033L12.4484 32.0954L19.1988 30.4033L14.3582 35.4033L19.1988 40.4033L12.4484 38.7112L10.5386 45.4033L8.62874 38.7112L1.87832 40.4033L6.71891 35.4033L1.87832 30.4033L8.62874 32.0954L10.5386 25.4033Z" fill="black"/>
<path d="M35.5386 25.4033L37.4484 32.0954L44.1988 30.4033L39.3582 35.4033L44.1988 40.4033L37.4484 38.7112L35.5386 45.4033L33.6287 38.7112L26.8783 40.4033L31.7189 35.4033L26.8783 30.4033L33.6287 32.0954L35.5386 25.4033Z" fill="black"/>
<path d="M60.5386 25.4033L62.4484 32.0954L69.1988 30.4033L64.3582 35.4033L69.1988 40.4033L62.4484 38.7112L60.5386 45.4033L58.6287 38.7112L51.8783 40.4033L56.7189 35.4033L51.8783 30.4033L58.6287 32.0954L60.5386 25.4033Z" fill="black"/>
<path d="M85.5386 25.4033L87.4484 32.0954L94.1988 30.4033L89.3582 35.4033L94.1988 40.4033L87.4484 38.7112L85.5386 45.4033L83.6287 38.7112L76.8783 40.4033L81.7189 35.4033L76.8783 30.4033L83.6287 32.0954L85.5386 25.4033Z" fill="black"/>
<path d="M110.539 25.4033L112.448 32.0954L119.199 30.4033L114.358 35.4033L119.199 40.4033L112.448 38.7112L110.539 45.4033L108.629 38.7112L101.878 40.4033L106.719 35.4033L101.878 30.4033L108.629 32.0954L110.539 25.4033Z" fill="black"/>
<path d="M135.539 25.4033L137.448 32.0954L144.199 30.4033L139.358 35.4033L144.199 40.4033L137.448 38.7112L135.539 45.4033L133.629 38.7112L126.878 40.4033L131.719 35.4033L126.878 30.4033L133.629 32.0954L135.539 25.4033Z" fill="black"/>
<path d="M160.539 25.4033L162.448 32.0954L169.199 30.4033L164.358 35.4033L169.199 40.4033L162.448 38.7112L160.539 45.4033L158.629 38.7112L151.878 40.4033L156.719 35.4033L151.878 30.4033L158.629 32.0954L160.539 25.4033Z" fill="black"/>
<path d="M185.539 25.4033L187.448 32.0954L194.199 30.4033L189.358 35.4033L194.199 40.4033L187.448 38.7112L185.539 45.4033L183.629 38.7112L176.878 40.4033L181.719 35.4033L176.878 30.4033L183.629 32.0954L185.539 25.4033Z" fill="black"/>
<path d="M210.539 25.4033L212.448 32.0954L219.199 30.4033L214.358 35.4033L219.199 40.4033L212.448 38.7112L210.539 45.4033L208.629 38.7112L201.878 40.4033L206.719 35.4033L201.878 30.4033L208.629 32.0954L210.539 25.4033Z" fill="black"/>
<path d="M235.539 25.4033L237.448 32.0954L244.199 30.4033L239.358 35.4033L244.199 40.4033L237.448 38.7112L235.539 45.4033L233.629 38.7112L226.878 40.4033L231.719 35.4033L226.878 30.4033L233.629 32.0954L235.539 25.4033Z" fill="black"/>
<path d="M260.539 25.4033L262.448 32.0954L269.199 30.4033L264.358 35.4033L269.199 40.4033L262.448 38.7112L260.539 45.4033L258.629 38.7112L251.878 40.4033L256.719 35.4033L251.878 30.4033L258.629 32.0954L260.539 25.4033Z" fill="black"/>
<path d="M285.539 25.4033L287.448 32.0954L294.199 30.4033L289.358 35.4033L294.199 40.4033L287.448 38.7112L285.539 45.4033L283.629 38.7112L276.878 40.4033L281.719 35.4033L276.878 30.4033L283.629 32.0954L285.539 25.4033Z" fill="black"/>
<path d="M310.539 25.4033L312.448 32.0954L319.199 30.4033L314.358 35.4033L319.199 40.4033L312.448 38.7112L310.539 45.4033L308.629 38.7112L301.878 40.4033L306.719 35.4033L301.878 30.4033L308.629 32.0954L310.539 25.4033Z" fill="black"/>
<path d="M335.539 25.4033L337.448 32.0954L344.199 30.4033L339.358 35.4033L344.199 40.4033L337.448 38.7112L335.539 45.4033L333.629 38.7112L326.878 40.4033L331.719 35.4033L326.878 30.4033L333.629 32.0954L335.539 25.4033Z" fill="black"/>
<path d="M360.539 25.4033L362.448 32.0954L369.199 30.4033L364.358 35.4033L369.199 40.4033L362.448 38.7112L360.539 45.4033L358.629 38.7112L351.878 40.4033L356.719 35.4033L351.878 30.4033L358.629 32.0954L360.539 25.4033Z" fill="black"/>
<path d="M385.539 25.4033L387.448 32.0954L394.199 30.4033L389.358 35.4033L394.199 40.4033L387.448 38.7112L385.539 45.4033L383.629 38.7112L376.878 40.4033L381.719 35.4033L376.878 30.4033L383.629 32.0954L385.539 25.4033Z" fill="black"/>
<path d="M410.539 25.4033L412.448 32.0954L419.199 30.4033L414.358 35.4033L419.199 40.4033L412.448 38.7112L410.539 45.4033L408.629 38.7112L401.878 40.4033L406.719 35.4033L401.878 30.4033L408.629 32.0954L410.539 25.4033Z" fill="black"/>
<path d="M435.539 25.4033L437.448 32.0954L444.199 30.4033L439.358 35.4033L444.199 40.4033L437.448 38.7112L435.539 45.4033L433.629 38.7112L426.878 40.4033L431.719 35.4033L426.878 30.4033L433.629 32.0954L435.539 25.4033Z" fill="black"/>
<path d="M460.539 25.4033L462.448 32.0954L469.199 30.4033L464.358 35.4033L469.199 40.4033L462.448 38.7112L460.539 45.4033L458.629 38.7112L451.878 40.4033L456.719 35.4033L451.878 30.4033L458.629 32.0954L460.539 25.4033Z" fill="black"/>
<path d="M485.539 25.4033L487.448 32.0954L494.199 30.4033L489.358 35.4033L494.199 40.4033L487.448 38.7112L485.539 45.4033L483.629 38.7112L476.878 40.4033L481.719 35.4033L476.878 30.4033L483.629 32.0954L485.539 25.4033Z" fill="black"/>
<path d="M10.5386 50.4033L12.4484 57.0954L19.1988 55.4033L14.3582 60.4033L19.1988 65.4033L12.4484 63.7112L10.5386 70.4033L8.62874 63.7112L1.87832 65.4033L6.71891 60.4033L1.87832 55.4033L8.62874 57.0954L10.5386 50.4033Z" fill="black"/>
<path d="M35.5386 50.4033L37.4484 57.0954L44.1988 55.4033L39.3582 60.4033L44.1988 65.4033L37.4484 63.7112L35.5386 70.4033L33.6287 63.7112L26.8783 65.4033L31.7189 60.4033L26.8783 55.4033L33.6287 57.0954L35.5386 50.4033Z" fill="black"/>
<path d="M60.5386 50.4033L62.4484 57.0954L69.1988 55.4033L64.3582 60.4033L69.1988 65.4033L62.4484 63.7112L60.5386 70.4033L58.6287 63.7112L51.8783 65.4033L56.7189 60.4033L51.8783 55.4033L58.6287 57.0954L60.5386 50.4033Z" fill="black"/>
<path d="M85.5386 50.4033L87.4484 57.0954L94.1988 55.4033L89.3582 60.4033L94.1988 65.4033L87.4484 63.7112L85.5386 70.4033L83.6287 63.7112L76.8783 65.4033L81.7189 60.4033L76.8783 55.4033L83.6287 57.0954L85.5386 50.4033Z" fill="black"/>
<path d="M110.539 50.4033L112.448 57.0954L119.199 55.4033L114.358 60.4033L119.199 65.4033L112.448 63.7112L110.539 70.4033L108.629 63.7112L101.878 65.4033L106.719 60.4033L101.878 55.4033L108.629 57.0954L110.539 50.4033Z" fill="black"/>
<path d="M135.539 50.4033L137.448 57.0954L144.199 55.4033L139.358 60.4033L144.199 65.4033L137.448 63.7112L135.539 70.4033L133.629 63.7112L126.878 65.4033L131.719 60.4033L126.878 55.4033L133.629 57.0954L135.539 50.4033Z" fill="black"/>
<path d="M160.539 50.4033L162.448 57.0954L169.199 55.4033L164.358 60.4033L169.199 65.4033L162.448 63.7112L160.539 70.4033L158.629 63.7112L151.878 65.4033L156.719 60.4033L151.878 55.4033L158.629 57.0954L160.539 50.4033Z" fill="black"/>
<path d="M185.539 50.4033L187.448 57.0954L194.199 55.4033L189.358 60.4033L194.199 65.4033L187.448 63.7112L185.539 70.4033L183.629 63.7112L176.878 65.4033L181.719 60.4033L176.878 55.4033L183.629 57.0954L185.539 50.4033Z" fill="black"/>
<path d="M210.539 50.4033L212.448 57.0954L219.199 55.4033L214.358 60.4033L219.199 65.4033L212.448 63.7112L210.539 70.4033L208.629 63.7112L201.878 65.4033L206.719 60.4033L201.878 55.4033L208.629 57.0954L210.539 50.4033Z" fill="black"/>
<path d="M235.539 50.4033L237.448 57.0954L244.199 55.4033L239.358 60.4033L244.199 65.4033L237.448 63.7112L235.539 70.4033L233.629 63.7112L226.878 65.4033L231.719 60.4033L226.878 55.4033L233.629 57.0954L235.539 50.4033Z" fill="black"/>
<path d="M260.539 50.4033L262.448 57.0954L269.199 55.4033L264.358 60.4033L269.199 65.4033L262.448 63.7112L260.539 70.4033L258.629 63.7112L251.878 65.4033L256.719 60.4033L251.878 55.4033L258.629 57.0954L260.539 50.4033Z" fill="black"/>
<path d="M285.539 50.4033L287.448 57.0954L294.199 55.4033L289.358 60.4033L294.199 65.4033L287.448 63.7112L285.539 70.4033L283.629 63.7112L276.878 65.4033L281.719 60.4033L276.878 55.4033L283.629 57.0954L285.539 50.4033Z" fill="black"/>
<path d="M310.539 50.4033L312.448 57.0954L319.199 55.4033L314.358 60.4033L319.199 65.4033L312.448 63.7112L310.539 70.4033L308.629 63.7112L301.878 65.4033L306.719 60.4033L301.878 55.4033L308.629 57.0954L310.539 50.4033Z" fill="black"/>
<path d="M335.539 50.4033L337.448 57.0954L344.199 55.4033L339.358 60.4033L344.199 65.4033L337.448 63.7112L335.539 70.4033L333.629 63.7112L326.878 65.4033L331.719 60.4033L326.878 55.4033L333.629 57.0954L335.539 50.4033Z" fill="black"/>
<path d="M360.539 50.4033L362.448 57.0954L369.199 55.4033L364.358 60.4033L369.199 65.4033L362.448 63.7112L360.539 70.4033L358.629 63.7112L351.878 65.4033L356.719 60.4033L351.878 55.4033L358.629 57.0954L360.539 50.4033Z" fill="black"/>
<path d="M385.539 50.4033L387.448 57.0954L394.199 55.4033L389.358 60.4033L394.199 65.4033L387.448 63.7112L385.539 70.4033L383.629 63.7112L376.878 65.4033L381.719 60.4033L376.878 55.4033L383.629 57.0954L385.539 50.4033Z" fill="black"/>
<path d="M410.539 50.4033L412.448 57.0954L419.199 55.4033L414.358 60.4033L419.199 65.4033L412.448 63.7112L410.539 70.4033L408.629 63.7112L401.878 65.4033L406.719 60.4033L401.878 55.4033L408.629 57.0954L410.539 50.4033Z" fill="black"/>
<path d="M435.539 50.4033L437.448 57.0954L444.199 55.4033L439.358 60.4033L444.199 65.4033L437.448 63.7112L435.539 70.4033L433.629 63.7112L426.878 65.4033L431.719 60.4033L426.878 55.4033L433.629 57.0954L435.539 50.4033Z" fill="black"/>
<path d="M460.539 50.4033L462.448 57.0954L469.199 55.4033L464.358 60.4033L469.199 65.4033L462.448 63.7112L460.539 70.4033L458.629 63.7112L451.878 65.4033L456.719 60.4033L451.878 55.4033L458.629 57.0954L460.539 50.4033Z" fill="black"/>
<path d="M485.539 50.4033L487.448 57.0954L494.199 55.4033L489.358 60.4033L494.199 65.4033L487.448 63.7112L485.539 70.4033L483.629 63.7112L476.878 65.4033L481.719 60.4033L476.878 55.4033L483.629 57.0954L485.539 50.4033Z" fill="black"/>
<path d="M10.5386 75.4033L12.4484 82.0954L19.1988 80.4033L14.3582 85.4033L19.1988 90.4033L12.4484 88.7112L10.5386 95.4033L8.62874 88.7112L1.87832 90.4033L6.71891 85.4033L1.87832 80.4033L8.62874 82.0954L10.5386 75.4033Z" fill="black"/>
<path d="M35.5386 75.4033L37.4484 82.0954L44.1988 80.4033L39.3582 85.4033L44.1988 90.4033L37.4484 88.7112L35.5386 95.4033L33.6287 88.7112L26.8783 90.4033L31.7189 85.4033L26.8783 80.4033L33.6287 82.0954L35.5386 75.4033Z" fill="black"/>
<path d="M60.5386 75.4033L62.4484 82.0954L69.1988 80.4033L64.3582 85.4033L69.1988 90.4033L62.4484 88.7112L60.5386 95.4033L58.6287 88.7112L51.8783 90.4033L56.7189 85.4033L51.8783 80.4033L58.6287 82.0954L60.5386 75.4033Z" fill="black"/>
<path d="M85.5386 75.4033L87.4484 82.0954L94.1988 80.4033L89.3582 85.4033L94.1988 90.4033L87.4484 88.7112L85.5386 95.4033L83.6287 88.7112L76.8783 90.4033L81.7189 85.4033L76.8783 80.4033L83.6287 82.0954L85.5386 75.4033Z" fill="black"/>
<path d="M110.539 75.4033L112.448 82.0954L119.199 80.4033L114.358 85.4033L119.199 90.4033L112.448 88.7112L110.539 95.4033L108.629 88.7112L101.878 90.4033L106.719 85.4033L101.878 80.4033L108.629 82.0954L110.539 75.4033Z" fill="black"/>
<path d="M135.539 75.4033L137.448 82.0954L144.199 80.4033L139.358 85.4033L144.199 90.4033L137.448 88.7112L135.539 95.4033L133.629 88.7112L126.878 90.4033L131.719 85.4033L126.878 80.4033L133.629 82.0954L135.539 75.4033Z" fill="black"/>
<path d="M160.539 75.4033L162.448 82.0954L169.199 80.4033L164.358 85.4033L169.199 90.4033L162.448 88.7112L160.539 95.4033L158.629 88.7112L151.878 90.4033L156.719 85.4033L151.878 80.4033L158.629 82.0954L160.539 75.4033Z" fill="black"/>
<path d="M185.539 75.4033L187.448 82.0954L194.199 80.4033L189.358 85.4033L194.199 90.4033L187.448 88.7112L185.539 95.4033L183.629 88.7112L176.878 90.4033L181.719 85.4033L176.878 80.4033L183.629 82.0954L185.539 75.4033Z" fill="black"/>
<path d="M210.539 75.4033L212.448 82.0954L219.199 80.4033L214.358 85.4033L219.199 90.4033L212.448 88.7112L210.539 95.4033L208.629 88.7112L201.878 90.4033L206.719 85.4033L201.878 80.4033L208.629 82.0954L210.539 75.4033Z" fill="black"/>
<path d="M235.539 75.4033L237.448 82.0954L244.199 80.4033L239.358 85.4033L244.199 90.4033L237.448 88.7112L235.539 95.4033L233.629 88.7112L226.878 90.4033L231.719 85.4033L226.878 80.4033L233.629 82.0954L235.539 75.4033Z" fill="black"/>
<path d="M260.539 75.4033L262.448 82.0954L269.199 80.4033L264.358 85.4033L269.199 90.4033L262.448 88.7112L260.539 95.4033L258.629 88.7112L251.878 90.4033L256.719 85.4033L251.878 80.4033L258.629 82.0954L260.539 75.4033Z" fill="black"/>
<path d="M285.539 75.4033L287.448 82.0954L294.199 80.4033L289.358 85.4033L294.199 90.4033L287.448 88.7112L285.539 95.4033L283.629 88.7112L276.878 90.4033L281.719 85.4033L276.878 80.4033L283.629 82.0954L285.539 75.4033Z" fill="black"/>
<path d="M310.539 75.4033L312.448 82.0954L319.199 80.4033L314.358 85.4033L319.199 90.4033L312.448 88.7112L310.539 95.4033L308.629 88.7112L301.878 90.4033L306.719 85.4033L301.878 80.4033L308.629 82.0954L310.539 75.4033Z" fill="black"/>
<path d="M335.539 75.4033L337.448 82.0954L344.199 80.4033L339.358 85.4033L344.199 90.4033L337.448 88.7112L335.539 95.4033L333.629 88.7112L326.878 90.4033L331.719 85.4033L326.878 80.4033L333.629 82.0954L335.539 75.4033Z" fill="black"/>
<path d="M360.539 75.4033L362.448 82.0954L369.199 80.4033L364.358 85.4033L369.199 90.4033L362.448 88.7112L360.539 95.4033L358.629 88.7112L351.878 90.4033L356.719 85.4033L351.878 80.4033L358.629 82.0954L360.539 75.4033Z" fill="black"/>
<path d="M385.539 75.4033L387.448 82.0954L394.199 80.4033L389.358 85.4033L394.199 90.4033L387.448 88.7112L385.539 95.4033L383.629 88.7112L376.878 90.4033L381.719 85.4033L376.878 80.4033L383.629 82.0954L385.539 75.4033Z" fill="black"/>
<path d="M410.539 75.4033L412.448 82.0954L419.199 80.4033L414.358 85.4033L419.199 90.4033L412.448 88.7112L410.539 95.4033L408.629 88.7112L401.878 90.4033L406.719 85.4033L401.878 80.4033L408.629 82.0954L410.539 75.4033Z" fill="black"/>
<path d="M435.539 75.4033L437.448 82.0954L444.199 80.4033L439.358 85.4033L444.199 90.4033L437.448 88.7112L435.539 95.4033L433.629 88.7112L426.878 90.4033L431.719 85.4033L426.878 80.4033L433.629 82.0954L435.539 75.4033Z" fill="black"/>
<path d="M460.539 75.4033L462.448 82.0954L469.199 80.4033L464.358 85.4033L469.199 90.4033L462.448 88.7112L460.539 95.4033L458.629 88.7112L451.878 90.4033L456.719 85.4033L451.878 80.4033L458.629 82.0954L460.539 75.4033Z" fill="black"/>
<path d="M485.539 75.4033L487.448 82.0954L494.199 80.4033L489.358 85.4033L494.199 90.4033L487.448 88.7112L485.539 95.4033L483.629 88.7112L476.878 90.4033L481.719 85.4033L476.878 80.4033L483.629 82.0954L485.539 75.4033Z" fill="black"/>
<path d="M10.5386 100.403L12.4484 107.095L19.1988 105.403L14.3582 110.403L19.1988 115.403L12.4484 113.711L10.5386 120.403L8.62874 113.711L1.87832 115.403L6.71891 110.403L1.87832 105.403L8.62874 107.095L10.5386 100.403Z" fill="black"/>
<path d="M35.5386 100.403L37.4484 107.095L44.1988 105.403L39.3582 110.403L44.1988 115.403L37.4484 113.711L35.5386 120.403L33.6287 113.711L26.8783 115.403L31.7189 110.403L26.8783 105.403L33.6287 107.095L35.5386 100.403Z" fill="black"/>
<path d="M60.5386 100.403L62.4484 107.095L69.1988 105.403L64.3582 110.403L69.1988 115.403L62.4484 113.711L60.5386 120.403L58.6287 113.711L51.8783 115.403L56.7189 110.403L51.8783 105.403L58.6287 107.095L60.5386 100.403Z" fill="black"/>
<path d="M85.5386 100.403L87.4484 107.095L94.1988 105.403L89.3582 110.403L94.1988 115.403L87.4484 113.711L85.5386 120.403L83.6287 113.711L76.8783 115.403L81.7189 110.403L76.8783 105.403L83.6287 107.095L85.5386 100.403Z" fill="black"/>
<path d="M110.539 100.403L112.448 107.095L119.199 105.403L114.358 110.403L119.199 115.403L112.448 113.711L110.539 120.403L108.629 113.711L101.878 115.403L106.719 110.403L101.878 105.403L108.629 107.095L110.539 100.403Z" fill="black"/>
<path d="M135.539 100.403L137.448 107.095L144.199 105.403L139.358 110.403L144.199 115.403L137.448 113.711L135.539 120.403L133.629 113.711L126.878 115.403L131.719 110.403L126.878 105.403L133.629 107.095L135.539 100.403Z" fill="black"/>
<path d="M160.539 100.403L162.448 107.095L169.199 105.403L164.358 110.403L169.199 115.403L162.448 113.711L160.539 120.403L158.629 113.711L151.878 115.403L156.719 110.403L151.878 105.403L158.629 107.095L160.539 100.403Z" fill="black"/>
<path d="M185.539 100.403L187.448 107.095L194.199 105.403L189.358 110.403L194.199 115.403L187.448 113.711L185.539 120.403L183.629 113.711L176.878 115.403L181.719 110.403L176.878 105.403L183.629 107.095L185.539 100.403Z" fill="black"/>
<path d="M210.539 100.403L212.448 107.095L219.199 105.403L214.358 110.403L219.199 115.403L212.448 113.711L210.539 120.403L208.629 113.711L201.878 115.403L206.719 110.403L201.878 105.403L208.629 107.095L210.539 100.403Z" fill="black"/>
<path d="M235.539 100.403L237.448 107.095L244.199 105.403L239.358 110.403L244.199 115.403L237.448 113.711L235.539 120.403L233.629 113.711L226.878 115.403L231.719 110.403L226.878 105.403L233.629 107.095L235.539 100.403Z" fill="black"/>
<path d="M260.539 100.403L262.448 107.095L269.199 105.403L264.358 110.403L269.199 115.403L262.448 113.711L260.539 120.403L258.629 113.711L251.878 115.403L256.719 110.403L251.878 105.403L258.629 107.095L260.539 100.403Z" fill="black"/>
<path d="M285.539 100.403L287.448 107.095L294.199 105.403L289.358 110.403L294.199 115.403L287.448 113.711L285.539 120.403L283.629 113.711L276.878 115.403L281.719 110.403L276.878 105.403L283.629 107.095L285.539 100.403Z" fill="black"/>
<path d="M310.539 100.403L312.448 107.095L319.199 105.403L314.358 110.403L319.199 115.403L312.448 113.711L310.539 120.403L308.629 113.711L301.878 115.403L306.719 110.403L301.878 105.403L308.629 107.095L310.539 100.403Z" fill="black"/>
<path d="M335.539 100.403L337.448 107.095L344.199 105.403L339.358 110.403L344.199 115.403L337.448 113.711L335.539 120.403L333.629 113.711L326.878 115.403L331.719 110.403L326.878 105.403L333.629 107.095L335.539 100.403Z" fill="black"/>
<path d="M360.539 100.403L362.448 107.095L369.199 105.403L364.358 110.403L369.199 115.403L362.448 113.711L360.539 120.403L358.629 113.711L351.878 115.403L356.719 110.403L351.878 105.403L358.629 107.095L360.539 100.403Z" fill="black"/>
<path d="M385.539 100.403L387.448 107.095L394.199 105.403L389.358 110.403L394.199 115.403L387.448 113.711L385.539 120.403L383.629 113.711L376.878 115.403L381.719 110.403L376.878 105.403L383.629 107.095L385.539 100.403Z" fill="black"/>
<path d="M410.539 100.403L412.448 107.095L419.199 105.403L414.358 110.403L419.199 115.403L412.448 113.711L410.539 120.403L408.629 113.711L401.878 115.403L406.719 110.403L401.878 105.403L408.629 107.095L410.539 100.403Z" fill="black"/>
<path d="M435.539 100.403L437.448 107.095L444.199 105.403L439.358 110.403L444.199 115.403L437.448 113.711L435.539 120.403L433.629 113.711L426.878 115.403L431.719 110.403L426.878 105.403L433.629 107.095L435.539 100.403Z" fill="black"/>
<path d="M460.539 100.403L462.448 107.095L469.199 105.403L464.358 110.403L469.199 115.403L462.448 113.711L460.539 120.403L458.629 113.711L451.878 115.403L456.719 110.403L451.878 105.403L458.629 107.095L460.539 100.403Z" fill="black"/>
<path d="M485.539 100.403L487.448 107.095L494.199 105.403L489.358 110.403L494.199 115.403L487.448 113.711L485.539 120.403L483.629 113.711L476.878 115.403L481.719 110.403L476.878 105.403L483.629 107.095L485.539 100.403Z" fill="black"/>
</svg>
