<svg width="441" height="380" viewBox="0 0 441 380" fill="none" xmlns="http://www.w3.org/2000/svg">
<rect x="-0.000976562" y="350" width="441" height="30" fill="#333333"/>
<circle cx="210" cy="192" r="140" stroke="url(#paint0_linear_217_34)" stroke-width="20"/>
<circle cx="210" cy="192" r="90" stroke="url(#paint1_linear_217_34)" stroke-width="20"/>
<circle cx="210" cy="192" r="40" stroke="url(#paint2_linear_217_34)" stroke-width="20"/>
<path d="M399.376 15.6658C400.092 15.1246 401.104 15.7289 400.967 16.6163L397.769 37.3367C397.683 37.8948 398.075 38.4135 398.636 38.4819L419.376 41.0135C420.269 41.1225 420.575 42.2623 419.858 42.8042L384.322 69.6389C384.093 69.8122 383.8 69.8783 383.518 69.8205L362.7 65.5454C362.209 65.4444 361.868 64.9945 361.904 64.4938L363.439 43.2312C363.46 42.9436 363.604 42.6789 363.834 42.5052L399.376 15.6658Z" fill="#45FCE4"/>
<path d="M237.72 158.395L383.74 48.1225" stroke="#45FCE4" stroke-width="15"/>
<rect x="205.034" y="192.724" width="180.656" height="23.9309" transform="rotate(-37.0597 205.034 192.724)" fill="black"/>
<path d="M211.435 207C210.955 207 210.595 206.895 210.355 206.685C210.145 206.445 209.95 206.235 209.77 206.055L200.41 195.75C200.11 195.45 199.915 195.15 199.825 194.85C199.765 194.55 199.735 194.145 199.735 193.635V191.7C199.735 191.37 199.84 191.1 200.05 190.89C200.26 190.68 200.53 190.575 200.86 190.575H202.795C204.625 190.575 206.02 190.35 206.98 189.9C207.97 189.42 208.645 188.775 209.005 187.965C209.365 187.125 209.545 186.18 209.545 185.13C209.545 184.11 209.365 183.195 209.005 182.385C208.645 181.545 208 180.885 207.07 180.405C206.14 179.895 204.85 179.64 203.2 179.64H200.59C200.29 179.64 200.035 179.535 199.825 179.325C199.615 179.115 199.51 178.845 199.51 178.515V176.625C199.51 176.295 199.615 176.025 199.825 175.815C200.035 175.605 200.29 175.5 200.59 175.5H219.49C219.79 175.5 220.045 175.605 220.255 175.815C220.465 176.025 220.57 176.295 220.57 176.625V178.515C220.57 178.845 220.465 179.115 220.255 179.325C220.045 179.535 219.79 179.64 219.49 179.64H212.155L212.875 178.605C214.405 179.115 215.455 180.015 216.025 181.305C216.625 182.595 216.925 184.005 216.925 185.535C216.925 187.335 216.52 188.94 215.71 190.35C214.93 191.76 213.775 192.9 212.245 193.77C210.745 194.61 208.93 195.105 206.8 195.255L205.135 195.48L205.81 192.51L217.42 205.425C217.69 205.725 217.825 205.965 217.825 206.145C217.825 206.415 217.735 206.625 217.555 206.775C217.375 206.925 217.135 207 216.835 207H211.435ZM200.59 186.93C200.26 186.93 199.99 186.825 199.78 186.615C199.57 186.405 199.465 186.135 199.465 185.805L199.51 183.915C199.51 183.585 199.615 183.315 199.825 183.105C200.035 182.895 200.29 182.79 200.59 182.79H219.49C219.79 182.79 220.045 182.895 220.255 183.105C220.465 183.315 220.57 183.585 220.57 183.915V185.805C220.57 186.135 220.465 186.405 220.255 186.615C220.045 186.825 219.775 186.93 219.445 186.93H200.59Z" fill="#45FCE4"/>
<defs>
<linearGradient id="paint0_linear_217_34" x1="210" y1="42" x2="210" y2="342" gradientUnits="userSpaceOnUse">
<stop stop-color="#45FCE4"/>
<stop offset="1" stop-color="#45FCE4" stop-opacity="0.61"/>
</linearGradient>
<linearGradient id="paint1_linear_217_34" x1="210" y1="92" x2="210" y2="292" gradientUnits="userSpaceOnUse">
<stop stop-color="#45FCE4"/>
<stop offset="1" stop-color="#45FCE4" stop-opacity="0.61"/>
</linearGradient>
<linearGradient id="paint2_linear_217_34" x1="210" y1="162" x2="210" y2="222" gradientUnits="userSpaceOnUse">
<stop stop-color="#45FCE4"/>
<stop offset="1" stop-color="#45FCE4" stop-opacity="0.61"/>
</linearGradient>
</defs>
</svg>
