<svg width="100" height="154" viewBox="0 0 100 154" fill="none" xmlns="http://www.w3.org/2000/svg">
<path d="M50 17.4173L54.8187 30.1206V144.154H45.1813V30.1206L50 17.4173Z" stroke="white" stroke-width="12"/>
<mask id="path-2-inside-1_213_14" fill="white">
<path d="M7.4671 44.4029L0 38.3142L7.4671 32.2254H39.1813V44.4029H7.4671Z"/>
</mask>
<path d="M7.4671 44.4029L-11.4914 67.6532L-3.21367 74.4029H7.4671L7.4671 44.4029ZM7.4671 32.2254L7.4671 2.22544H-3.21367L-11.4914 8.97514L7.4671 32.2254ZM39.1813 32.2254L69.1813 32.2254V2.22544L39.1813 2.22544V32.2254ZM39.1813 44.4029V74.4029H69.1813V44.4029L39.1813 44.4029ZM0 38.3142L-18.9585 15.0639L-47.4722 38.3142L-18.9585 61.5645L0 38.3142ZM7.4671 62.2254H39.1813V2.22544H7.4671L7.4671 62.2254ZM9.18128 32.2254V44.4029L69.1813 44.4029V32.2254L9.18128 32.2254ZM39.1813 14.4029L7.4671 14.4029L7.4671 74.4029H39.1813V14.4029ZM26.4256 21.1526L18.9585 15.0639L-18.9585 61.5645L-11.4914 67.6532L26.4256 21.1526ZM18.9585 61.5645L26.4256 55.4757L-11.4914 8.97514L-18.9585 15.0639L18.9585 61.5645Z" fill="white" mask="url(#path-2-inside-1_213_14)"/>
<path d="M7.91203 86.3831L9.24722 85.2943H34.1813V87.4718H9.24722L7.91203 86.3831Z" stroke="white" stroke-width="10"/>
<mask id="path-5-inside-2_213_14" fill="white">
<path d="M92.5329 54.6577L100 60.7464L92.5329 66.8351H60.8187V54.6577H92.5329Z"/>
</mask>
<path d="M92.5329 54.6577L105.172 39.1575L99.6534 34.6577H92.5329V54.6577ZM92.5329 66.8351V86.8351H99.6534L105.172 82.3353L92.5329 66.8351ZM60.8187 66.8351H40.8187V86.8351H60.8187V66.8351ZM60.8187 54.6577V34.6577H40.8187V54.6577L60.8187 54.6577ZM100 60.7464L112.639 76.2466L131.648 60.7464L112.639 45.2462L100 60.7464ZM92.5329 46.8351H60.8187V86.8351H92.5329V46.8351ZM80.8187 66.8351V54.6577L40.8187 54.6577V66.8351H80.8187ZM60.8187 74.6577H92.5329V34.6577H60.8187V74.6577ZM79.8939 70.1579L87.361 76.2466L112.639 45.2462L105.172 39.1575L79.8939 70.1579ZM87.361 45.2462L79.8939 51.3349L105.172 82.3353L112.639 76.2466L87.361 45.2462Z" fill="white" mask="url(#path-5-inside-2_213_14)"/>
<line x1="14.6199" y1="149" x2="84.7953" y2="149" stroke="white" stroke-width="10"/>
</svg>
