<svg width="100" height="154" viewBox="0 0 100 154" fill="none" xmlns="http://www.w3.org/2000/svg">
<path d="M50.0001 16.9173L54.8188 29.6206V143.654H45.1814V29.6206L50.0001 16.9173Z" fill="white" stroke="black" stroke-width="12"/>
<mask id="path-2-inside-1_331_2" fill="white">
<path d="M7.4671 43.9028L0 37.8141L7.4671 31.7254H39.1813V43.9028H7.4671Z"/>
</mask>
<path d="M7.4671 43.9028L0 37.8141L7.4671 31.7254H39.1813V43.9028H7.4671Z" fill="white"/>
<path d="M7.4671 43.9028L-11.4914 67.1531L-3.21367 73.9028H7.4671L7.4671 43.9028ZM7.4671 31.7254L7.4671 1.72538H-3.21367L-11.4914 8.47508L7.4671 31.7254ZM39.1813 31.7254L69.1813 31.7254V1.72538L39.1813 1.72538V31.7254ZM39.1813 43.9028V73.9028H69.1813V43.9028L39.1813 43.9028ZM0 37.8141L-18.9585 14.5638L-47.4722 37.8141L-18.9585 61.0644L0 37.8141ZM7.4671 61.7254H39.1813V1.72538H7.4671L7.4671 61.7254ZM9.18128 31.7254V43.9028L69.1813 43.9028V31.7254L9.18128 31.7254ZM39.1813 13.9028L7.4671 13.9028L7.4671 73.9028H39.1813V13.9028ZM26.4256 20.6525L18.9585 14.5638L-18.9585 61.0644L-11.4914 67.1531L26.4256 20.6525ZM18.9585 61.0644L26.4256 54.9757L-11.4914 8.47508L-18.9585 14.5638L18.9585 61.0644Z" fill="black" mask="url(#path-2-inside-1_331_2)"/>
<path d="M7.91203 85.883L9.24722 84.7942H34.1813V86.9717H9.24722L7.91203 85.883Z" fill="white" stroke="black" stroke-width="10"/>
<mask id="path-5-inside-2_331_2" fill="white">
<path d="M92.5329 54.1577L100 60.2464L92.5329 66.3352H60.8187V54.1577H92.5329Z"/>
</mask>
<path d="M92.5329 54.1577L100 60.2464L92.5329 66.3352H60.8187V54.1577H92.5329Z" fill="white"/>
<path d="M92.5329 54.1577L105.172 38.6575L99.6534 34.1577H92.5329V54.1577ZM92.5329 66.3352V86.3352H99.6534L105.172 81.8354L92.5329 66.3352ZM60.8187 66.3352H40.8187V86.3352H60.8187V66.3352ZM60.8187 54.1577V34.1577H40.8187V54.1577L60.8187 54.1577ZM100 60.2464L112.639 75.7466L131.648 60.2464L112.639 44.7462L100 60.2464ZM92.5329 46.3352H60.8187V86.3352H92.5329V46.3352ZM80.8187 66.3352V54.1577L40.8187 54.1577V66.3352H80.8187ZM60.8187 74.1577H92.5329V34.1577H60.8187V74.1577ZM79.8939 69.6579L87.361 75.7466L112.639 44.7462L105.172 38.6575L79.8939 69.6579ZM87.361 44.7462L79.8939 50.835L105.172 81.8354L112.639 75.7466L87.361 44.7462Z" fill="black" mask="url(#path-5-inside-2_331_2)"/>
<line x1="14.6199" y1="148.5" x2="84.7953" y2="148.5" stroke="black" stroke-width="10"/>
</svg>
