<svg width="1300" height="1300" viewBox="0 0 1300 1300" fill="none" xmlns="http://www.w3.org/2000/svg">
<g clip-path="url(#clip0_370_2)">
<path d="M1045 412H255C227.386 412 205 434.386 205 462C205 489.614 227.386 512 255 512H1045C1072.61 512 1095 489.614 1095 462C1095 434.386 1072.61 412 1045 412Z" fill="#5A1E95"/>
<path d="M565 597H255C227.386 597 205 619.386 205 647C205 674.614 227.386 697 255 697H565C592.614 697 615 674.614 615 647C615 619.386 592.614 597 565 597Z" fill="#5A1E95"/>
<path d="M565 787H255C227.386 787 205 809.386 205 837C205 864.614 227.386 887 255 887H565C592.614 887 615 864.614 615 837C615 809.386 592.614 787 565 787Z" fill="#5A1E95"/>
<path d="M1045 592H727C699.386 592 677 614.386 677 642C677 669.614 699.386 692 727 692H1045C1072.61 692 1095 669.614 1095 642C1095 614.386 1072.61 592 1045 592Z" fill="#5A1E95"/>
<path d="M677 647.66V831.34C677 862.08 699.386 887 727 887C754.614 887 777 862.08 777 831.34V647.66C777 616.92 754.614 592 727 592C699.386 592 677 616.92 677 647.66Z" fill="#5A1E95"/>
<path d="M650 1275C995.178 1275 1275 995.178 1275 650C1275 304.822 995.178 25 650 25C304.822 25 25 304.822 25 650C25 995.178 304.822 1275 650 1275Z" stroke="#5A1E95" stroke-width="50"/>
</g>
<defs>
<clipPath id="clip0_370_2">
<rect width="1300" height="1300" fill="white"/>
</clipPath>
</defs>
</svg>
