<svg width="441" height="338" viewBox="0 0 441 338" fill="none" xmlns="http://www.w3.org/2000/svg">
<rect x="377" y="253" width="51" height="61" fill="url(#paint0_linear_175_498)"/>
<rect x="17" y="253" width="51" height="61" fill="url(#paint1_linear_175_498)"/>
<rect x="107" y="116" width="51" height="198" fill="url(#paint2_linear_175_498)"/>
<path d="M122.4 161V157.52L133.52 146.96C134.453 146.08 135.147 145.307 135.6 144.64C136.053 143.973 136.347 143.36 136.48 142.8C136.64 142.213 136.72 141.667 136.72 141.16C136.72 139.88 136.28 138.893 135.4 138.2C134.52 137.48 133.227 137.12 131.52 137.12C130.16 137.12 128.92 137.36 127.8 137.84C126.707 138.32 125.76 139.053 124.96 140.04L121.32 137.24C122.413 135.773 123.88 134.64 125.72 133.84C127.587 133.013 129.667 132.6 131.96 132.6C133.987 132.6 135.747 132.933 137.24 133.6C138.76 134.24 139.92 135.16 140.72 136.36C141.547 137.56 141.96 138.987 141.96 140.64C141.96 141.547 141.84 142.453 141.6 143.36C141.36 144.24 140.907 145.173 140.24 146.16C139.573 147.147 138.6 148.253 137.32 149.48L127.76 158.56L126.68 156.6H143.04V161H122.4Z" fill="black"/>
<rect x="287" y="176" width="51" height="138" fill="url(#paint3_linear_175_498)"/>
<path d="M311.92 214.3C310.44 214.3 308.99 214.09 307.57 213.67C306.17 213.23 304.99 212.63 304.03 211.87L305.71 208.84C306.47 209.46 307.39 209.96 308.47 210.34C309.55 210.72 310.68 210.91 311.86 210.91C313.26 210.91 314.35 210.63 315.13 210.07C315.91 209.49 316.3 208.71 316.3 207.73C316.3 206.77 315.94 206.01 315.22 205.45C314.5 204.89 313.34 204.61 311.74 204.61H309.82V201.94L315.82 194.8L316.33 196.27H305.05V193H319.36V195.61L313.36 202.75L311.32 201.55H312.49C315.07 201.55 317 202.13 318.28 203.29C319.58 204.43 320.23 205.9 320.23 207.7C320.23 208.88 319.93 209.97 319.33 210.97C318.73 211.97 317.81 212.78 316.57 213.4C315.35 214 313.8 214.3 311.92 214.3Z" fill="black"/>
<rect x="197" y="57" width="51" height="258" fill="url(#paint4_linear_175_498)"/>
<path d="M220.8 110V77.5L223.65 80.45H213.4V75H227.3V110H220.8Z" fill="black"/>
<rect y="308" width="441" height="30" fill="#333333"/>
<path d="M226.19 42C225.89 42 225.635 41.94 225.425 41.82C225.245 41.7 225.065 41.535 224.885 41.325L214.04 28.68C213.86 28.47 213.725 28.305 213.635 28.185C213.545 28.035 213.5 27.795 213.5 27.465V26.97C213.5 26.67 213.59 26.43 213.77 26.25C213.95 26.07 214.19 25.98 214.49 25.98H217.19C219.47 25.98 221.195 25.695 222.365 25.125C223.565 24.555 224.375 23.79 224.795 22.83C225.245 21.87 225.47 20.79 225.47 19.59C225.47 18.39 225.245 17.31 224.795 16.35C224.375 15.39 223.595 14.625 222.455 14.055C221.345 13.485 219.77 13.2 217.73 13.2H213.995C213.695 13.2 213.455 13.11 213.275 12.93C213.095 12.75 213.005 12.51 213.005 12.21V11.49C213.005 11.19 213.095 10.95 213.275 10.77C213.455 10.59 213.695 10.5 213.995 10.5H231.365C231.665 10.5 231.905 10.59 232.085 10.77C232.265 10.95 232.355 11.19 232.355 11.49V12.21C232.355 12.51 232.265 12.75 232.085 12.93C231.905 13.11 231.665 13.2 231.365 13.2H224.795L222.635 11.94C224.795 12.36 226.28 13.275 227.09 14.685C227.9 16.065 228.305 17.7 228.305 19.59C228.305 21.18 227.975 22.65 227.315 24C226.655 25.35 225.56 26.43 224.03 27.24C222.53 28.05 220.52 28.455 218 28.455H216.875L216.56 27.285L228.035 40.695C228.245 40.905 228.35 41.115 228.35 41.325C228.35 41.565 228.26 41.745 228.08 41.865C227.9 41.955 227.69 42 227.45 42H226.19ZM213.995 20.4C213.695 20.4 213.455 20.31 213.275 20.13C213.095 19.95 213.005 19.71 213.005 19.41V18.69C213.005 18.39 213.095 18.15 213.275 17.97C213.455 17.79 213.695 17.7 213.995 17.7H231.365C231.665 17.7 231.905 17.79 232.085 17.97C232.265 18.15 232.355 18.39 232.355 18.69V19.41C232.355 19.71 232.265 19.95 232.085 20.13C231.905 20.31 231.665 20.4 231.365 20.4H213.995Z" fill="white"/>
<path d="M132.46 99C132.26 99 132.09 98.96 131.95 98.88C131.83 98.8 131.71 98.69 131.59 98.55L124.36 90.12C124.24 89.98 124.15 89.87 124.09 89.79C124.03 89.69 124 89.53 124 89.31V88.98C124 88.78 124.06 88.62 124.18 88.5C124.3 88.38 124.46 88.32 124.66 88.32H126.46C127.98 88.32 129.13 88.13 129.91 87.75C130.71 87.37 131.25 86.86 131.53 86.22C131.83 85.58 131.98 84.86 131.98 84.06C131.98 83.26 131.83 82.54 131.53 81.9C131.25 81.26 130.73 80.75 129.97 80.37C129.23 79.99 128.18 79.8 126.82 79.8H124.33C124.13 79.8 123.97 79.74 123.85 79.62C123.73 79.5 123.67 79.34 123.67 79.14V78.66C123.67 78.46 123.73 78.3 123.85 78.18C123.97 78.06 124.13 78 124.33 78H135.91C136.11 78 136.27 78.06 136.39 78.18C136.51 78.3 136.57 78.46 136.57 78.66V79.14C136.57 79.34 136.51 79.5 136.39 79.62C136.27 79.74 136.11 79.8 135.91 79.8H131.53L130.09 78.96C131.53 79.24 132.52 79.85 133.06 80.79C133.6 81.71 133.87 82.8 133.87 84.06C133.87 85.12 133.65 86.1 133.21 87C132.77 87.9 132.04 88.62 131.02 89.16C130.02 89.7 128.68 89.97 127 89.97H126.25L126.04 89.19L133.69 98.13C133.83 98.27 133.9 98.41 133.9 98.55C133.9 98.71 133.84 98.83 133.72 98.91C133.6 98.97 133.46 99 133.3 99H132.46ZM124.33 84.6C124.13 84.6 123.97 84.54 123.85 84.42C123.73 84.3 123.67 84.14 123.67 83.94V83.46C123.67 83.26 123.73 83.1 123.85 82.98C123.97 82.86 124.13 82.8 124.33 82.8H135.91C136.11 82.8 136.27 82.86 136.39 82.98C136.51 83.1 136.57 83.26 136.57 83.46V83.94C136.57 84.14 136.51 84.3 136.39 84.42C136.27 84.54 136.11 84.6 135.91 84.6H124.33Z" fill="white"/>
<path d="M315.46 160C315.26 160 315.09 159.96 314.95 159.88C314.83 159.8 314.71 159.69 314.59 159.55L307.36 151.12C307.24 150.98 307.15 150.87 307.09 150.79C307.03 150.69 307 150.53 307 150.31V149.98C307 149.78 307.06 149.62 307.18 149.5C307.3 149.38 307.46 149.32 307.66 149.32H309.46C310.98 149.32 312.13 149.13 312.91 148.75C313.71 148.37 314.25 147.86 314.53 147.22C314.83 146.58 314.98 145.86 314.98 145.06C314.98 144.26 314.83 143.54 314.53 142.9C314.25 142.26 313.73 141.75 312.97 141.37C312.23 140.99 311.18 140.8 309.82 140.8H307.33C307.13 140.8 306.97 140.74 306.85 140.62C306.73 140.5 306.67 140.34 306.67 140.14V139.66C306.67 139.46 306.73 139.3 306.85 139.18C306.97 139.06 307.13 139 307.33 139H318.91C319.11 139 319.27 139.06 319.39 139.18C319.51 139.3 319.57 139.46 319.57 139.66V140.14C319.57 140.34 319.51 140.5 319.39 140.62C319.27 140.74 319.11 140.8 318.91 140.8H314.53L313.09 139.96C314.53 140.24 315.52 140.85 316.06 141.79C316.6 142.71 316.87 143.8 316.87 145.06C316.87 146.12 316.65 147.1 316.21 148C315.77 148.9 315.04 149.62 314.02 150.16C313.02 150.7 311.68 150.97 310 150.97H309.25L309.04 150.19L316.69 159.13C316.83 159.27 316.9 159.41 316.9 159.55C316.9 159.71 316.84 159.83 316.72 159.91C316.6 159.97 316.46 160 316.3 160H315.46ZM307.33 145.6C307.13 145.6 306.97 145.54 306.85 145.42C306.73 145.3 306.67 145.14 306.67 144.94V144.46C306.67 144.26 306.73 144.1 306.85 143.98C306.97 143.86 307.13 143.8 307.33 143.8H318.91C319.11 143.8 319.27 143.86 319.39 143.98C319.51 144.1 319.57 144.26 319.57 144.46V144.94C319.57 145.14 319.51 145.3 319.39 145.42C319.27 145.54 319.11 145.6 318.91 145.6H307.33Z" fill="white"/>
<path d="M45.46 236C45.26 236 45.09 235.96 44.95 235.88C44.83 235.8 44.71 235.69 44.59 235.55L37.36 227.12C37.24 226.98 37.15 226.87 37.09 226.79C37.03 226.69 37 226.53 37 226.31V225.98C37 225.78 37.06 225.62 37.18 225.5C37.3 225.38 37.46 225.32 37.66 225.32H39.46C40.98 225.32 42.13 225.13 42.91 224.75C43.71 224.37 44.25 223.86 44.53 223.22C44.83 222.58 44.98 221.86 44.98 221.06C44.98 220.26 44.83 219.54 44.53 218.9C44.25 218.26 43.73 217.75 42.97 217.37C42.23 216.99 41.18 216.8 39.82 216.8H37.33C37.13 216.8 36.97 216.74 36.85 216.62C36.73 216.5 36.67 216.34 36.67 216.14V215.66C36.67 215.46 36.73 215.3 36.85 215.18C36.97 215.06 37.13 215 37.33 215H48.91C49.11 215 49.27 215.06 49.39 215.18C49.51 215.3 49.57 215.46 49.57 215.66V216.14C49.57 216.34 49.51 216.5 49.39 216.62C49.27 216.74 49.11 216.8 48.91 216.8H44.53L43.09 215.96C44.53 216.24 45.52 216.85 46.06 217.79C46.6 218.71 46.87 219.8 46.87 221.06C46.87 222.12 46.65 223.1 46.21 224C45.77 224.9 45.04 225.62 44.02 226.16C43.02 226.7 41.68 226.97 40 226.97H39.25L39.04 226.19L46.69 235.13C46.83 235.27 46.9 235.41 46.9 235.55C46.9 235.71 46.84 235.83 46.72 235.91C46.6 235.97 46.46 236 46.3 236H45.46ZM37.33 221.6C37.13 221.6 36.97 221.54 36.85 221.42C36.73 221.3 36.67 221.14 36.67 220.94V220.46C36.67 220.26 36.73 220.1 36.85 219.98C36.97 219.86 37.13 219.8 37.33 219.8H48.91C49.11 219.8 49.27 219.86 49.39 219.98C49.51 220.1 49.57 220.26 49.57 220.46V220.94C49.57 221.14 49.51 221.3 49.39 221.42C49.27 221.54 49.11 221.6 48.91 221.6H37.33Z" fill="white"/>
<path d="M404.55 238C404.383 238 404.242 237.967 404.125 237.9C404.025 237.833 403.925 237.742 403.825 237.625L397.8 230.6C397.7 230.483 397.625 230.392 397.575 230.325C397.525 230.242 397.5 230.108 397.5 229.925V229.65C397.5 229.483 397.55 229.35 397.65 229.25C397.75 229.15 397.883 229.1 398.05 229.1H399.55C400.817 229.1 401.775 228.942 402.425 228.625C403.092 228.308 403.542 227.883 403.775 227.35C404.025 226.817 404.15 226.217 404.15 225.55C404.15 224.883 404.025 224.283 403.775 223.75C403.542 223.217 403.108 222.792 402.475 222.475C401.858 222.158 400.983 222 399.85 222H397.775C397.608 222 397.475 221.95 397.375 221.85C397.275 221.75 397.225 221.617 397.225 221.45V221.05C397.225 220.883 397.275 220.75 397.375 220.65C397.475 220.55 397.608 220.5 397.775 220.5H407.425C407.592 220.5 407.725 220.55 407.825 220.65C407.925 220.75 407.975 220.883 407.975 221.05V221.45C407.975 221.617 407.925 221.75 407.825 221.85C407.725 221.95 407.592 222 407.425 222H403.775L402.575 221.3C403.775 221.533 404.6 222.042 405.05 222.825C405.5 223.592 405.725 224.5 405.725 225.55C405.725 226.433 405.542 227.25 405.175 228C404.808 228.75 404.2 229.35 403.35 229.8C402.517 230.25 401.4 230.475 400 230.475H399.375L399.2 229.825L405.575 237.275C405.692 237.392 405.75 237.508 405.75 237.625C405.75 237.758 405.7 237.858 405.6 237.925C405.5 237.975 405.383 238 405.25 238H404.55ZM397.775 226C397.608 226 397.475 225.95 397.375 225.85C397.275 225.75 397.225 225.617 397.225 225.45V225.05C397.225 224.883 397.275 224.75 397.375 224.65C397.475 224.55 397.608 224.5 397.775 224.5H407.425C407.592 224.5 407.725 224.55 407.825 224.65C407.925 224.75 407.975 224.883 407.975 225.05V225.45C407.975 225.617 407.925 225.75 407.825 225.85C407.725 225.95 407.592 226 407.425 226H397.775Z" fill="white"/>
<defs>
<linearGradient id="paint0_linear_175_498" x1="402.5" y1="253" x2="402.5" y2="324.727" gradientUnits="userSpaceOnUse">
<stop stop-color="#45FCE4"/>
<stop offset="1" stop-opacity="0"/>
</linearGradient>
<linearGradient id="paint1_linear_175_498" x1="42.5" y1="253" x2="42.5" y2="324.727" gradientUnits="userSpaceOnUse">
<stop stop-color="#45FCE4"/>
<stop offset="1" stop-opacity="0"/>
</linearGradient>
<linearGradient id="paint2_linear_175_498" x1="132.5" y1="116" x2="132.5" y2="348.818" gradientUnits="userSpaceOnUse">
<stop stop-color="#45FCE4"/>
<stop offset="1" stop-opacity="0"/>
</linearGradient>
<linearGradient id="paint3_linear_175_498" x1="312.5" y1="176" x2="312.5" y2="338.267" gradientUnits="userSpaceOnUse">
<stop stop-color="#45FCE4"/>
<stop offset="1" stop-opacity="0"/>
</linearGradient>
<linearGradient id="paint4_linear_175_498" x1="222.5" y1="57" x2="222.5" y2="360.369" gradientUnits="userSpaceOnUse">
<stop stop-color="#45FCE4"/>
<stop offset="1" stop-opacity="0"/>
</linearGradient>
</defs>
</svg>
