<svg width="115" height="157" viewBox="0 0 115 157" fill="none" xmlns="http://www.w3.org/2000/svg">
<path d="M50 44H65C70.5228 44 75 48.4772 75 54V152H40V54C40 48.4772 44.4772 44 50 44Z" stroke="white" stroke-width="10"/>
<path d="M15 99H30C35.5228 99 40 103.477 40 109V152H5V109C5 103.477 9.47715 99 15 99Z" stroke="white" stroke-width="10"/>
<path d="M85 80H100C105.523 80 110 84.4772 110 90V152H75V90C75 84.4772 79.4772 80 85 80Z" stroke="white" stroke-width="10"/>
<path d="M57.5 8.09017L58.1533 10.1008L58.7146 11.8283H60.5309H62.6451L60.9347 13.0709L59.4652 14.1385L60.0265 15.866L60.6798 17.8766L58.9695 16.634L57.5 15.5664L56.0305 16.634L54.3202 17.8766L54.9735 15.866L55.5348 14.1385L54.0653 13.0709L52.3549 11.8283H54.4691H56.2854L56.8467 10.1008L57.5 8.09017Z" stroke="white" stroke-width="5"/>
</svg>
