<svg width="108" height="110" viewBox="0 0 108 110" fill="none" xmlns="http://www.w3.org/2000/svg">
<path d="M41 69V95C41 100.523 45.4772 105 51 105H93C98.5228 105 103 100.523 103 95V15C103 9.47715 98.5228 5 93 5H51C45.4772 5 41 9.47715 41 15V40" stroke="white" stroke-width="10"/>
<path d="M3 51C1.34315 51 0 52.3431 0 54C0 55.6569 1.34315 57 3 57L3 51ZM82.1213 56.1213C83.2929 54.9497 83.2929 53.0503 82.1213 51.8787L63.0294 32.7868C61.8579 31.6152 59.9584 31.6152 58.7868 32.7868C57.6152 33.9584 57.6152 35.8579 58.7868 37.0294L75.7574 54L58.7868 70.9706C57.6152 72.1421 57.6152 74.0416 58.7868 75.2132C59.9584 76.3848 61.8579 76.3848 63.0294 75.2132L82.1213 56.1213ZM3 57L80 57V51L3 51L3 57Z" fill="white"/>
</svg>
